<svg xmlns="http://www.w3.org/2000/svg" xmlns:xlink="http://www.w3.org/1999/xlink" width="0" height="0" style="display:none;"><symbol viewBox="0 0 20 16" id="_icon-arrow-slider"><path d="m7.704.454-6.75 6.75a1.125 1.125 0 0 0 0 1.594l6.75 6.75a1.127 1.127 0 0 0 1.594-1.594l-4.83-4.829H18.25a1.125 1.125 0 0 0 0-2.25H4.469l4.83-4.829A1.127 1.127 0 0 0 7.705.452z"></path></symbol><symbol viewBox="0 0 12 7" id="_icon-arrow"><path d="m11.53 1.53-5 5a.75.75 0 0 1-1.062 0l-5-5A.751.751 0 0 1 1.531.469L6 4.938l4.47-4.47a.751.751 0 1 1 1.062 1.062z"></path></symbol><symbol viewBox="0 0 20 21" id="_icon-check"><path d="M10 .83a9.75 9.75 0 1 0 9.75 9.75A9.76 9.76 0 0 0 10 .83m4.28 8.03-5.25 5.25a.75.75 0 0 1-1.06 0l-2.25-2.25a.75.75 0 1 1 1.06-1.061l1.72 1.72 4.72-4.72a.75.75 0 1 1 1.06 1.06"></path></symbol><symbol viewBox="0 0 16 16" id="_icon-checked"><path d="m14.53 5.03-8 8a.75.75 0 0 1-1.062 0l-3.5-3.5a.751.751 0 1 1 1.063-1.062L6 11.438l7.47-7.469a.751.751 0 0 1 1.062 1.063z"></path></symbol><symbol viewBox="0 0 14 14" id="_icon-close"><path d="M13.288 11.962a.939.939 0 1 1-1.328 1.328L7 8.328l-4.962 4.96A.94.94 0 0 1 .71 11.96L5.672 7 .712 2.038A.94.94 0 1 1 2.04.71L7 5.672 11.962.709a.94.94 0 1 1 1.328 1.329L8.328 7z"></path></symbol><symbol viewBox="0 0 8 13" id="_icon-facebook"><path d="M2.709 12.304V6.75H.839V4.586h1.87V2.99C2.709 1.138 3.84.129 5.492.129c.792 0 1.472.059 1.67.085V2.15H6.016c-.898 0-1.072.427-1.072 1.054v1.382h2.143l-.28 2.164H4.945v5.554z"></path></symbol><symbol viewBox="0 0 14 13" id="_icon-github"><path fill-rule="evenodd" clip-rule="evenodd" d="M6.607.227a6.464 6.464 0 0 0-6.48 6.48c0 2.861 1.863 5.291 4.428 6.155.324.054.432-.135.432-.324v-1.107c-1.81.405-2.187-.864-2.187-.864-.297-.756-.73-.945-.73-.945-.593-.405.055-.405.055-.405.648.054.999.675.999.675.567 1 1.512.702 1.89.54.054-.432.216-.702.405-.864-1.431-.162-2.943-.729-2.943-3.213 0-.702.243-1.296.675-1.728-.054-.162-.297-.81.054-1.727 0 0 .54-.162 1.782.675a6.5 6.5 0 0 1 1.62-.216c.54 0 1.107.08 1.62.216 1.242-.837 1.782-.675 1.782-.675.35.89.135 1.538.054 1.727.405.46.675 1.026.675 1.728 0 2.484-1.512 3.024-2.97 3.186.243.19.432.594.432 1.188v1.782c0 .162.108.378.459.324a6.45 6.45 0 0 0 4.428-6.129c0-3.59-2.89-6.48-6.48-6.48"></path></symbol><symbol viewBox="0 0 14 14" id="_icon-instagram"><path d="M7 1.447c1.81 0 2.024.007 2.738.04.43.005.855.084 1.258.233a2.24 2.24 0 0 1 1.286 1.286c.15.403.228.828.233 1.258.032.714.04.928.04 2.737s-.007 2.023-.04 2.738a3.8 3.8 0 0 1-.233 1.258 2.24 2.24 0 0 1-1.286 1.285c-.403.15-.828.228-1.258.234-.714.032-.928.039-2.737.039s-2.023-.007-2.738-.04a3.8 3.8 0 0 1-1.258-.233 2.24 2.24 0 0 1-1.286-1.285 3.8 3.8 0 0 1-.233-1.258c-.032-.715-.04-.93-.04-2.738 0-1.809.008-2.023.04-2.737.006-.43.084-.855.233-1.258A2.24 2.24 0 0 1 3.005 1.72c.403-.15.829-.228 1.258-.233.715-.033.93-.04 2.738-.04m0-1.22c-1.838 0-2.07.007-2.792.04a5 5 0 0 0-1.645.315c-.452.17-.861.437-1.2.782a3.3 3.3 0 0 0-.782 1.2 5 5 0 0 0-.314 1.644c-.033.722-.04.954-.04 2.793 0 1.838.007 2.07.04 2.793.011.562.118 1.118.315 1.645.17.452.437.861.782 1.2.338.344.747.611 1.2.781a5 5 0 0 0 1.644.315c.723.032.954.04 2.793.04s2.07-.007 2.793-.04a5 5 0 0 0 1.646-.315 3.47 3.47 0 0 0 1.98-1.982 5 5 0 0 0 .315-1.645c.032-.722.04-.954.04-2.792 0-1.839-.008-2.07-.04-2.793a5 5 0 0 0-.316-1.645 3.3 3.3 0 0 0-.781-1.2 3.3 3.3 0 0 0-1.2-.782A5 5 0 0 0 9.793.267c-.722-.033-.954-.04-2.792-.04"></path><path d="M7.002 3.523a3.479 3.479 0 1 0 0 6.958 3.479 3.479 0 0 0 0-6.958m0 5.737a2.258 2.258 0 1 1 0-4.516 2.258 2.258 0 0 1 0 4.516"></path><path d="M10.618 4.198a.813.813 0 1 0 0-1.626.813.813 0 0 0 0 1.626"></path></symbol><symbol viewBox="0 0 22 16" id="_icon-mail"><path d="M20 .125H2A1.125 1.125 0 0 0 .875 1.25V14a1.875 1.875 0 0 0 1.875 1.875h16.5A1.875 1.875 0 0 0 21.125 14V1.25A1.125 1.125 0 0 0 20 .125m-9 7.849L4.892 2.375h12.216zM7.7 8l-4.575 4.193V3.808zm1.664 1.526.876.804a1.125 1.125 0 0 0 1.52 0l.876-.804 4.472 4.099H4.892zM14.301 8l4.574-4.192v8.385z" fill-opacity="0.4"></path></symbol><symbol viewBox="0 0 22 22" id="_icon-serach"><path d="m20.796 19.204-4.452-4.454a8.636 8.636 0 1 0-1.594 1.594l4.456 4.457a1.126 1.126 0 1 0 1.594-1.594zM3.125 9.5A6.375 6.375 0 1 1 9.5 15.875 6.38 6.38 0 0 1 3.125 9.5" fill-opacity="0.4"></path></symbol><symbol id="_icon-shop"></symbol><symbol viewBox="0 0 23 21" id="_icon-star"><path d="m11.29 0 3.198 6.887 7.538.914-5.561 5.17 1.46 7.452-6.635-3.692-6.636 3.692 1.46-7.452-5.561-5.17 7.538-.914z"></path></symbol><symbol viewBox="0 0 12 10" id="_icon-twitter"><path d="M11.207 1.983a5 5 0 0 1-1.327.373c.466-.28.838-.722 1.001-1.257a5 5 0 0 1-1.466.558A2.32 2.32 0 0 0 7.739.936a2.285 2.285 0 0 0-2.282 2.28c0 .187.023.35.07.513A6.52 6.52 0 0 1 .801 1.331C.615 1.681.5 2.053.5 2.472c0 .791.396 1.49 1.024 1.909A2.7 2.7 0 0 1 .476 4.1v.024a2.3 2.3 0 0 0 1.839 2.258c-.187.046-.396.07-.606.07-.14 0-.302-.024-.442-.047.303.908 1.14 1.583 2.142 1.583a4.66 4.66 0 0 1-2.84.978c-.187 0-.373 0-.536-.023a6.5 6.5 0 0 0 3.515 1.024c4.214 0 6.518-3.492 6.518-6.518v-.303a4.2 4.2 0 0 0 1.141-1.164"></path></symbol><symbol id="_icon-user"></symbol></svg>