<svg viewBox="0 0 22 19" xmlns="http://www.w3.org/2000/svg" fill="black"><path d="M12.125 9.125v8.625a1.125 1.125 0 1 1-2.25 0V9.125a1.125 1.125 0 0 1 2.25 0M17.75 15.5a1.125 1.125 0 0 0-1.125 1.125v1.125a1.125 1.125 0 1 0 2.25 0v-1.125A1.125 1.125 0 0 0 17.75 15.5M20 11.75h-1.125V1.25a1.125 1.125 0 1 0-2.25 0v10.5H15.5a1.125 1.125 0 1 0 0 2.25H20a1.125 1.125 0 1 0 0-2.25m-15.75.75a1.125 1.125 0 0 0-1.125 1.125v4.125a1.125 1.125 0 0 0 2.25 0v-4.125A1.125 1.125 0 0 0 4.25 12.5M6.5 8.75H5.375v-7.5a1.125 1.125 0 0 0-2.25 0v7.5H2A1.125 1.125 0 0 0 2 11h4.5a1.125 1.125 0 1 0 0-2.25m6.75-4.5h-1.125v-3a1.125 1.125 0 1 0-2.25 0v3H8.75a1.125 1.125 0 0 0 0 2.25h4.5a1.125 1.125 0 0 0 0-2.25" fill-opacity="0.4"/></svg>