<svg viewBox="0 0 14 14" xmlns="http://www.w3.org/2000/svg" fill="black"><path d="M7 1.447c1.81 0 2.024.007 2.738.04.43.005.855.084 1.258.233a2.24 2.24 0 0 1 1.286 1.286c.15.403.228.828.233 1.258.032.714.04.928.04 2.737s-.007 2.023-.04 2.738a3.8 3.8 0 0 1-.233 1.258 2.24 2.24 0 0 1-1.286 1.285c-.403.15-.828.228-1.258.234-.714.032-.928.039-2.737.039s-2.023-.007-2.738-.04a3.8 3.8 0 0 1-1.258-.233 2.24 2.24 0 0 1-1.286-1.285 3.8 3.8 0 0 1-.233-1.258c-.032-.715-.04-.93-.04-2.738 0-1.809.008-2.023.04-2.737.006-.43.084-.855.233-1.258A2.24 2.24 0 0 1 3.005 1.72c.403-.15.829-.228 1.258-.233.715-.033.93-.04 2.738-.04m0-1.22c-1.838 0-2.07.007-2.792.04a5 5 0 0 0-1.645.315c-.452.17-.861.437-1.2.782a3.3 3.3 0 0 0-.782 1.2 5 5 0 0 0-.314 1.644c-.033.722-.04.954-.04 2.793 0 1.838.007 2.07.04 2.793.011.562.118 1.118.315 1.645.17.452.437.861.782 1.2.338.344.747.611 1.2.781a5 5 0 0 0 1.644.315c.723.032.954.04 2.793.04s2.07-.007 2.793-.04a5 5 0 0 0 1.646-.315 3.47 3.47 0 0 0 1.98-1.982 5 5 0 0 0 .315-1.645c.032-.722.04-.954.04-2.792 0-1.839-.008-2.07-.04-2.793a5 5 0 0 0-.316-1.645 3.3 3.3 0 0 0-.781-1.2 3.3 3.3 0 0 0-1.2-.782A5 5 0 0 0 9.793.267c-.722-.033-.954-.04-2.792-.04"/><path d="M7.002 3.523a3.479 3.479 0 1 0 0 6.958 3.479 3.479 0 0 0 0-6.958m0 5.737a2.258 2.258 0 1 1 0-4.516 2.258 2.258 0 0 1 0 4.516"/><path d="M10.618 4.198a.813.813 0 1 0 0-1.626.813.813 0 0 0 0 1.626"/></svg>