<svg viewBox="0 0 12 10" xmlns="http://www.w3.org/2000/svg" fill="black"><path d="M11.207 1.983a5 5 0 0 1-1.327.373c.466-.28.838-.722 1.001-1.257a5 5 0 0 1-1.466.558A2.32 2.32 0 0 0 7.739.936a2.285 2.285 0 0 0-2.282 2.28c0 .187.023.35.07.513A6.52 6.52 0 0 1 .801 1.331C.615 1.681.5 2.053.5 2.472c0 .791.396 1.49 1.024 1.909A2.7 2.7 0 0 1 .476 4.1v.024a2.3 2.3 0 0 0 1.839 2.258c-.187.046-.396.07-.606.07-.14 0-.302-.024-.442-.047.303.908 1.14 1.583 2.142 1.583a4.66 4.66 0 0 1-2.84.978c-.187 0-.373 0-.536-.023a6.5 6.5 0 0 0 3.515 1.024c4.214 0 6.518-3.492 6.518-6.518v-.303a4.2 4.2 0 0 0 1.141-1.164"/></svg>